<?xml version="1.0" encoding="UTF-8" standalone="no"?>
<svg
   xmlns:dc="http://purl.org/dc/elements/1.1/"
   xmlns:cc="http://creativecommons.org/ns#"
   xmlns:rdf="http://www.w3.org/1999/02/22-rdf-syntax-ns#"
   xmlns:svg="http://www.w3.org/2000/svg"
   xmlns="http://www.w3.org/2000/svg"
   xmlns:xlink="http://www.w3.org/1999/xlink"
   xmlns:sodipodi="http://sodipodi.sourceforge.net/DTD/sodipodi-0.dtd"
   xmlns:inkscape="http://www.inkscape.org/namespaces/inkscape"
   id="svg1648"
   version="1.1"
   viewBox="0 0 173.40968 57.81815"
   height="57.81815mm"
   width="173.40968mm"
   sodipodi:docname="navbar-logo.svg"
   inkscape:version="0.92.5 (2060ec1f9f, 2020-04-08)">
  <sodipodi:namedview
     pagecolor="#ffffff"
     bordercolor="#666666"
     borderopacity="1"
     objecttolerance="10"
     gridtolerance="10"
     guidetolerance="10"
     inkscape:pageopacity="0"
     inkscape:pageshadow="2"
     inkscape:window-width="1672"
     inkscape:window-height="938"
     id="namedview31"
     showgrid="false"
     inkscape:zoom="0.85443133"
     inkscape:cx="265.08859"
     inkscape:cy="252.01891"
     inkscape:window-x="60"
     inkscape:window-y="38"
     inkscape:window-maximized="0"
     inkscape:current-layer="svg1648" />
  <defs
     id="defs1642">
    <linearGradient
       gradientTransform="matrix(0.30884337,0,0,0.30884337,12.721242,9.5677993)"
       gradientUnits="userSpaceOnUse"
       y2="141.91446"
       x2="58.147217"
       y1="6.8865242"
       x1="58.147217"
       id="linearGradient1469"
       xlink:href="#linearGradient1467" />
    <linearGradient
       id="linearGradient1467">
      <stop
         id="stop1463"
         offset="0"
         style="stop-color:#000000;stop-opacity:1" />
      <stop
         id="stop1465"
         offset="1"
         style="stop-color:#0f0f0f;stop-opacity:0" />
    </linearGradient>
    <linearGradient
       gradientTransform="matrix(0.08171481,0,0,0.08171481,-17.324926,8.2966156)"
       gradientUnits="userSpaceOnUse"
       y2="43.475777"
       x2="626.39453"
       y1="426.6875"
       x1="626.39453"
       id="linearGradient984"
       xlink:href="#linearGradient982" />
    <linearGradient
       id="linearGradient982">
      <stop
         id="stop978"
         offset="0"
         style="stop-color:#16a1c0;stop-opacity:1" />
      <stop
         id="stop980"
         offset="1"
         style="stop-color:#81ddf1;stop-opacity:1" />
    </linearGradient>
  </defs>
  <metadata
     id="metadata1645">
    <rdf:RDF>
      <cc:Work
         rdf:about="">
        <dc:format>image/svg+xml</dc:format>
        <dc:type
           rdf:resource="http://purl.org/dc/dcmitype/StillImage" />
        <dc:title />
      </cc:Work>
    </rdf:RDF>
  </metadata>
  <g
     id="g4629">
    <g
       transform="translate(-15.512989,-9.621383)"
       id="g1619">
      <path
         style="opacity:0.60100002;fill:url(#linearGradient1469);fill-opacity:1;stroke-width:0.08317861"
         d="M 29.601745,11.62141 A 12.088751,15.770957 0 0 0 17.512991,27.392367 12.088751,15.770957 0 0 0 29.601745,43.163323 h 4.259249 a 12.088751,15.770957 0 0 1 -2.148468,-0.256955 12.088751,15.770957 0 0 0 -8.1e-5,0 12.088751,15.770957 0 0 0 -1.61e-4,0 12.088751,15.770957 0 0 1 -6.17e-4,-1.63e-4 12.088751,15.770957 0 0 1 -0.79433,-0.242594 12.088751,15.770957 0 0 1 -0.584149,-0.207159 12.088751,15.770957 0 0 1 -0.571925,-0.255519 12.088751,15.770957 0 0 1 -0.273908,-0.136617 l 0.0016,0.01501 a 12.088751,15.770957 0 0 1 -0.165887,-0.09703 12.088751,15.770957 0 0 1 -0.124173,-0.06193 12.088751,15.770957 0 0 1 -0.549899,-0.32893 12.088751,15.770957 0 0 1 -0.04673,-0.03064 12.088751,15.770957 0 0 1 -0.377772,-0.247535 12.088751,15.770957 0 0 1 -0.115486,-0.07566 12.088751,15.770957 0 0 1 -0.520172,-0.397555 12.088751,15.770957 0 0 1 -0.03927,-0.03256 12.088751,15.770957 0 0 1 -0.366644,-0.303398 12.088751,15.770957 0 0 1 -0.10374,-0.08587 12.088751,15.770957 0 0 1 -0.488977,-0.46507 12.088751,15.770957 0 0 1 -0.03008,-0.03079 12.088751,15.770957 0 0 1 -0.352449,-0.360856 12.088751,15.770957 0 0 1 -0.092,-0.09416 12.088751,15.770957 0 0 1 -0.450441,-0.525877 12.088751,15.770957 0 0 1 -0.02177,-0.02731 12.088751,15.770957 0 0 1 -0.333246,-0.41767 12.088751,15.770957 0 0 1 -0.07939,-0.09943 12.088751,15.770957 0 0 1 -0.409215,-0.583655 12.088751,15.770957 0 0 1 -0.01491,-0.02283 12.088751,15.770957 0 0 1 -0.307552,-0.471137 12.088751,15.770957 0 0 1 -0.06716,-0.102942 12.088751,15.770957 0 0 1 -0.363215,-0.635207 12.088751,15.770957 0 0 1 -0.0077,-0.01451 12.088751,15.770957 0 0 1 -0.279661,-0.527156 12.088751,15.770957 0 0 1 -0.05407,-0.101987 12.088751,15.770957 0 0 1 -0.313426,-0.680848 12.088751,15.770957 0 0 1 -8.78e-4,-0.0025 12.088751,15.770957 0 0 1 -0.246875,-0.582055 12.088751,15.770957 0 0 1 -0.04171,-0.09832 12.088751,15.770957 0 0 1 -0.243693,-0.673665 12.088751,15.770957 0 0 1 -0.220941,-0.666966 12.088751,15.770957 0 0 1 -0.03145,-0.09544 12.088751,15.770957 0 0 1 -0.172004,-0.632647 12.088751,15.770957 0 0 1 -0.190846,-0.775815 12.088751,15.770957 0 0 1 -0.02091,-0.08634 12.088751,15.770957 0 0 1 -0.107898,-0.5728 12.088751,15.770957 0 0 1 -0.147173,-0.885939 12.088751,15.770957 0 0 1 -0.01235,-0.07741 12.088751,15.770957 0 0 1 -0.05444,-0.502099 12.088751,15.770957 0 0 1 -0.116341,-1.335686 7.8295025,10.21435 0 0 1 -3.09e-4,-0.0051 7.8295025,10.21435 0 0 1 -0.03352,-0.87173 12.088751,15.770957 0 0 1 0.03462,-0.883545 12.088751,15.770957 0 0 1 0.0056,-0.145391 7.8295025,10.21435 0 0 1 0.03891,-0.333245 7.8295025,10.21435 0 0 1 0.06202,-0.532585 7.8295025,10.21435 0 0 1 0,-3.09e-4 7.8295025,10.21435 0 0 1 0.08099,-0.470019 7.8295025,10.21435 0 0 1 0.102273,-0.520933 7.8295025,10.21435 0 0 1 0.116709,-0.458208 7.8295025,10.21435 0 0 1 1.23e-4,-6.19e-4 7.8295025,10.21435 0 0 1 0.02925,-0.104218 7.8295025,10.21435 0 0 1 0.112306,-0.399956 7.8295025,10.21435 0 0 1 0.152184,-0.443527 7.8295025,10.21435 0 0 1 0.178,-0.479593 7.8295025,10.21435 0 0 1 0.186563,-0.424375 7.8295025,10.21435 0 0 1 0.213231,-0.452784 7.8295025,10.21435 0 0 1 0.217148,-0.396282 7.8295025,10.21435 0 0 1 6.17e-4,-0.0012 7.8295025,10.21435 0 0 1 0.06948,-0.119062 7.8295025,10.21435 0 0 1 0.177755,-0.304196 7.8295025,10.21435 0 0 1 0.246143,-0.365643 7.8295025,10.21435 0 0 1 8.78e-4,-0.0016 7.8295025,10.21435 0 0 1 0.277823,-0.388302 7.8295025,10.21435 0 0 1 2.47e-4,-3.09e-4 7.8295025,10.21435 0 0 1 0.275007,-0.334203 7.8295025,10.21435 0 0 1 0.01603,-0.01835 7.8295025,10.21435 0 0 1 0.288837,-0.330369 7.8295025,10.21435 0 0 1 0.301801,-0.299248 7.8295025,10.21435 0 0 1 0.327372,-0.304834 7.8295025,10.21435 0 0 1 0.324436,-0.259508 7.8295025,10.21435 0 0 1 0.0012,-8.79e-4 7.8295025,10.21435 0 0 1 0.346334,-0.258709 7.8295025,10.21435 0 0 1 6.18e-4,-3.08e-4 7.8295025,10.21435 0 0 1 0.34499,-0.217377 7.8295025,10.21435 0 0 1 0.365294,-0.212743 7.8295025,10.21435 0 0 1 6.18e-4,-3.09e-4 7.8295025,10.21435 0 0 1 0.356485,-0.169657 7.8295025,10.21435 0 0 1 2.44e-4,-1.63e-4 7.8295025,10.21435 0 0 1 0.380585,-0.164546 7.8295025,10.21435 0 0 1 3.09e-4,-1.64e-4 7.8295025,10.21435 0 0 1 0.373126,-0.124168 7.8295025,10.21435 0 0 1 0.384992,-0.112356 7.8295025,10.21435 0 0 1 6.17e-4,-1.65e-4 7.8295025,10.21435 0 0 1 0.385483,-0.07597 7.8295025,10.21435 0 0 1 8.78e-4,-1.63e-4 7.8295025,10.21435 0 0 1 0.252502,-0.03958 7.8295025,10.21435 0 0 1 0.134813,-0.02122 7.8295025,10.21435 0 0 1 0.664041,-0.04341 7.8295025,10.21435 0 0 1 0.68141,0.04756 7.8295025,10.21435 0 0 1 3.09e-4,0 7.8295025,10.21435 0 0 1 0.387561,0.06511 7.8295025,10.21435 0 0 1 0.0068,0.0012 7.8295025,10.21435 0 0 1 0.378994,0.07661 7.8295025,10.21435 0 0 1 0.664897,0.201096 7.8295025,10.21435 0 0 1 1.64e-4,0 7.8295025,10.21435 0 0 1 5.70942,9.822694 7.8295025,10.21435 0 0 1 -5.690213,9.822692 7.8295025,10.21435 0 0 0 0.664893,0.201095 7.8295025,10.21435 0 0 0 0.385727,0.07789 7.8295025,10.21435 0 0 0 0.387926,0.06511 7.8295025,10.21435 0 0 0 3.09e-4,0 7.8295025,10.21435 0 0 0 0.681046,0.04756 7.8295025,10.21435 0 0 0 0.664038,-0.04341 7.8295025,10.21435 0 0 0 0.386459,-0.06065 7.8295025,10.21435 0 0 0 8.78e-4,-1.61e-4 7.8295025,10.21435 0 0 0 0.387072,-0.07629 7.8295025,10.21435 0 0 0 6.17e-4,-1.61e-4 7.8295025,10.21435 0 0 0 0.38438,-0.112202 7.8295025,10.21435 0 0 0 0.02371,-0.008 7.8295025,10.21435 0 0 0 0.349758,-0.116344 7.8295025,10.21435 0 0 0 3.1e-4,-1.64e-4 7.8295025,10.21435 0 0 0 0.379975,-0.164233 7.8295025,10.21435 0 0 0 2.44e-4,-1.64e-4 7.8295025,10.21435 0 0 0 0.357345,-0.170133 7.8295025,10.21435 0 0 0 6.17e-4,-3.08e-4 7.8295025,10.21435 0 0 0 0.364683,-0.212423 7.8295025,10.21435 0 0 0 0.05701,-0.03591 7.8295025,10.21435 0 0 0 0.288468,-0.181785 7.8295025,10.21435 0 0 0 6.19e-4,-3.1e-4 7.8295025,10.21435 0 0 0 0.344742,-0.25759 7.8295025,10.21435 0 0 0 0.0012,-8.79e-4 7.8295025,10.21435 0 0 0 0.325536,-0.260467 7.8295025,10.21435 0 0 0 0.327372,-0.304834 7.8295025,10.21435 0 0 0 0.301805,-0.299248 7.8295025,10.21435 0 0 0 0.304861,-0.348724 7.8295025,10.21435 0 0 0 0.0138,-0.01692 7.8295025,10.21435 0 0 0 0.261437,-0.317602 7.8295025,10.21435 0 0 0 1.63e-4,-1.64e-4 7.8295025,10.21435 0 0 0 0.2766,-0.386549 7.8295025,10.21435 0 0 0 0.0012,-0.0016 7.8295025,10.21435 0 0 0 0.247118,-0.367237 7.8295025,10.21435 0 0 0 0.24663,-0.422139 7.8295025,10.21435 0 0 0 6.17e-4,-0.0012 7.8295025,10.21435 0 0 0 0.217759,-0.397401 7.8295025,10.21435 0 0 0 0.213229,-0.452786 7.8295025,10.21435 0 0 0 0.186563,-0.424373 7.8295025,10.21435 0 0 0 0.176776,-0.475924 7.8295025,10.21435 0 0 0 6.18e-4,-0.0021 7.8295025,10.21435 0 0 0 0.153167,-0.446717 7.8295025,10.21435 0 0 0 0.140073,-0.499227 7.8295025,10.21435 0 0 0 1.61e-4,-3.09e-4 7.8295025,10.21435 0 0 0 0.117811,-0.462199 7.8295025,10.21435 0 0 0 8.3e-5,-8.79e-4 7.8295025,10.21435 0 0 0 0.10203,-0.519653 7.8295025,10.21435 0 0 0 0.06631,-0.384956 7.8295025,10.21435 0 0 0 0.01466,-0.08538 7.8295025,10.21435 0 0 0 0,-1.63e-4 7.8295025,10.21435 0 0 0 0.06202,-0.532424 7.8295025,10.21435 0 0 0 2.44e-4,-0.0021 7.8295025,10.21435 0 0 0 0.04429,-0.475289 12.088751,15.770957 0 0 0 0,-0.0012 7.8295025,10.21435 0 0 0 0.03463,-0.883539 12.088751,15.770957 0 0 0 -0.03352,-0.871732 12.088751,15.770957 0 0 0 -3.08e-4,-0.0051 12.088751,15.770957 0 0 0 -0.09591,-1.180871 12.088751,15.770957 0 0 0 -0.103623,-0.837099 12.088751,15.770957 0 0 0 -2.45e-4,-0.0016 12.088751,15.770957 0 0 0 -0.109858,-0.687075 12.088751,15.770957 0 0 0 -0.177996,-0.871892 12.088751,15.770957 0 0 0 -0.145092,-0.600571 12.088751,15.770957 0 0 0 -0.0044,-0.01835 12.088751,15.770957 0 0 0 -0.258252,-0.894394 12.088751,15.770957 0 0 0 -6.18e-4,-0.0016 12.088751,15.770957 0 0 0 -0.179712,-0.545989 12.088751,15.770957 0 0 0 0,-1.64e-4 12.088751,15.770957 0 0 0 -0.342249,-0.900559 12.088751,15.770957 0 0 0 -0.204424,-0.481835 12.088751,15.770957 0 0 0 -0.428542,-0.891038 12.088751,15.770957 0 0 0 -0.218615,-0.412087 12.088751,15.770957 0 0 0 -0.516136,-0.867103 12.088751,15.770957 0 0 0 -0.228522,-0.350001 12.088751,15.770957 0 0 0 -0.599079,-0.822094 12.088751,15.770957 0 0 0 -8.78e-4,-0.0013 12.088751,15.770957 0 0 0 -0.233786,-0.292865 12.088751,15.770957 0 0 0 -0.682877,-0.766396 12.088751,15.770957 0 0 0 -0.0975,-0.09991 12.088751,15.770957 0 0 0 -0.132735,-0.135979 12.088751,15.770957 0 0 0 -8.78e-4,-7.79e-4 12.088751,15.770957 0 0 0 -0.760441,-0.693938 12.088751,15.770957 0 0 0 -6.17e-4,-6.48e-4 12.088751,15.770957 0 0 0 -0.225342,-0.186412 12.088751,15.770957 0 0 0 -0.831514,-0.607595 12.088751,15.770957 0 0 0 -1.64e-4,0 12.088751,15.770957 0 0 0 -0.218668,-0.14315 12.088751,15.770957 0 0 0 -0.892314,-0.506727 12.088751,15.770957 0 0 0 -6.17e-4,-3.08e-4 12.088751,15.770957 0 0 0 -0.114016,-0.05682 12.088751,15.770957 0 0 0 -0.841429,-0.372823 12.088751,15.770957 0 0 0 -0.27403,-0.09704 12.088751,15.770957 0 0 0 -0.98542,-0.31026 12.088751,15.770957 0 0 0 -1.6e-4,0 12.088751,15.770957 0 0 0 -1.070847,-0.183323 12.088751,15.770957 0 0 0 -1.078021,-0.07326 z"
         id="path4663-5-0"
         inkscape:connector-curvature="0" />
      <path
         style="opacity:1;fill:url(#linearGradient984);fill-opacity:1;stroke-width:0.08317861"
         d="m 29.601717,11.621387 a 12.088751,15.770957 0 0 1 2.148525,0.256954 12.088751,15.770957 0 0 0 1.59e-4,0 12.088751,15.770957 0 0 1 2.100804,0.780121 l 1.6e-4,-0.0078 a 12.088751,15.770957 0 0 1 0.113795,0.06464 12.088751,15.770957 0 0 1 0.892798,0.507047 12.088751,15.770957 0 0 1 0.218651,0.14316 12.088751,15.770957 0 0 1 0.831671,0.607593 12.088751,15.770957 0 0 1 0.225354,0.186412 12.088751,15.770957 0 0 1 0.761926,0.695375 12.088751,15.770957 0 0 1 0.230143,0.235887 12.088751,15.770957 0 0 1 0.682925,0.766396 12.088751,15.770957 0 0 1 0.233813,0.292864 12.088751,15.770957 0 0 1 0.600094,0.823372 12.088751,15.770957 0 0 1 0.228545,0.350002 12.088751,15.770957 0 0 1 0.516144,0.867102 12.088751,15.770957 0 0 1 0.218491,0.412085 12.088751,15.770957 0 0 1 0.428524,0.891042 12.088751,15.770957 0 0 1 0.204447,0.481831 12.088751,15.770957 0 0 1 0.342341,0.900779 12.088751,15.770957 0 0 1 0.179708,0.545988 12.088751,15.770957 0 0 1 0.25871,0.89599 12.088751,15.770957 0 0 1 0.149545,0.618927 12.088751,15.770957 0 0 1 0.177953,0.87189 12.088751,15.770957 0 0 1 0.109964,0.687075 12.088751,15.770957 0 0 1 0.10374,0.838534 12.088751,15.770957 0 0 1 0.09592,1.180874 12.088751,15.770957 0 0 1 3.09e-4,0.0051 12.088751,15.770957 0 0 1 0.03351,0.871731 7.8295025,10.21435 0 0 1 -0.03464,0.883542 12.088751,15.770957 0 0 1 -0.0055,0.145396 7.8295025,10.21435 0 0 1 -0.03894,0.333242 7.8295025,10.21435 0 0 1 -0.06193,0.532583 7.8295025,10.21435 0 0 1 -0.08108,0.470339 7.8295025,10.21435 0 0 1 -0.102143,0.520612 7.8295025,10.21435 0 0 1 -0.117785,0.4622 7.8295025,10.21435 0 0 1 -0.140128,0.499544 7.8295025,10.21435 0 0 1 -0.153215,0.446719 7.8295025,10.21435 0 0 1 -0.177475,0.478 7.8295025,10.21435 0 0 1 -0.18657,0.424375 7.8295025,10.21435 0 0 1 -0.213226,0.452783 7.8295025,10.21435 0 0 1 -0.217852,0.397402 7.8295025,10.21435 0 0 1 -0.247219,0.423257 7.8295025,10.21435 0 0 1 -0.24706,0.367238 7.8295025,10.21435 0 0 1 -0.277862,0.388304 7.8295025,10.21435 0 0 1 -0.275308,0.334521 7.8295025,10.21435 0 0 1 -0.304835,0.348724 7.8295025,10.21435 0 0 1 -0.301803,0.299249 7.8295025,10.21435 0 0 1 -0.327338,0.304834 7.8295025,10.21435 0 0 1 -0.325582,0.260465 7.8295025,10.21435 0 0 1 -0.346331,0.258712 7.8295025,10.21435 0 0 1 -0.345373,0.217692 7.8295025,10.21435 0 0 1 -0.365322,0.212746 7.8295025,10.21435 0 0 1 -0.357343,0.170133 7.8295025,10.21435 0 0 1 -0.380644,0.164546 7.8295025,10.21435 0 0 1 -0.373461,0.124329 7.8295025,10.21435 0 0 1 -0.384954,0.112358 7.8295025,10.21435 0 0 1 -0.387188,0.07629 7.8295025,10.21435 0 0 1 -0.387187,0.06081 7.8295025,10.21435 0 0 1 -0.664094,0.04341 7.8295025,10.21435 0 0 1 -0.681487,-0.04757 7.8295025,10.21435 0 0 1 -0.387827,-0.06511 7.8295025,10.21435 0 0 1 -0.385752,-0.07788 7.8295025,10.21435 0 0 1 -0.66489,-0.201096 7.8295025,10.21435 0 0 1 -1.6e-4,0 7.8295025,10.21435 0 0 1 -5.709502,-9.822693 7.8295025,10.21435 0 0 1 5.690351,-9.822694 7.8295025,10.21435 0 0 0 -0.665051,-0.201095 7.8295025,10.21435 0 0 0 -0.38559,-0.07788 7.8295025,10.21435 0 0 0 -0.387987,-0.06511 7.8295025,10.21435 0 0 0 -0.681489,-0.04756 7.8295025,10.21435 0 0 0 -0.663933,0.04341 7.8295025,10.21435 0 0 0 -0.387346,0.06081 7.8295025,10.21435 0 0 0 -0.387028,0.07629 7.8295025,10.21435 0 0 0 -0.384954,0.112358 7.8295025,10.21435 0 0 0 -0.373621,0.124327 7.8295025,10.21435 0 0 0 -0.380485,0.164548 7.8295025,10.21435 0 0 0 -0.357343,0.170132 7.8295025,10.21435 0 0 0 -0.365322,0.212746 7.8295025,10.21435 0 0 0 -0.345533,0.217693 7.8295025,10.21435 0 0 0 -0.34633,0.258711 7.8295025,10.21435 0 0 0 -0.325582,0.260466 7.8295025,10.21435 0 0 0 -0.327339,0.304834 7.8295025,10.21435 0 0 0 -0.301801,0.299248 7.8295025,10.21435 0 0 0 -0.304835,0.348725 7.8295025,10.21435 0 0 0 -0.275309,0.33452 7.8295025,10.21435 0 0 0 -0.277703,0.388305 7.8295025,10.21435 0 0 0 -0.247218,0.367238 7.8295025,10.21435 0 0 0 -0.24722,0.423257 7.8295025,10.21435 0 0 0 -0.217693,0.397402 7.8295025,10.21435 0 0 0 -0.213225,0.452783 7.8295025,10.21435 0 0 0 -0.186572,0.424374 7.8295025,10.21435 0 0 0 -0.178112,0.479596 7.8295025,10.21435 0 0 0 -0.152098,0.443526 7.8295025,10.21435 0 0 0 -0.141565,0.504174 7.8295025,10.21435 0 0 0 -0.116827,0.458848 7.8295025,10.21435 0 0 0 -0.102303,0.520932 7.8295025,10.21435 0 0 0 -0.08092,0.470339 7.8295025,10.21435 0 0 0 -0.06208,0.532583 7.8295025,10.21435 0 0 0 -0.04453,0.478637 12.088751,15.770957 0 0 0 -0.03464,0.883542 7.8295025,10.21435 0 0 0 0.03351,0.87173 7.8295025,10.21435 0 0 0 3.09e-4,0.0051 12.088751,15.770957 0 0 0 0.08538,1.050961 12.088751,15.770957 0 0 0 0.08538,0.786824 12.088751,15.770957 0 0 0 0.122572,0.766396 12.088751,15.770957 0 0 0 0.144916,0.769747 12.088751,15.770957 0 0 0 0.179869,0.74485 12.088751,15.770957 0 0 0 0.203808,0.749957 12.088751,15.770957 0 0 0 0.235888,0.716441 12.088751,15.770957 0 0 0 0.260305,0.719632 12.088751,15.770957 0 0 0 0.289514,0.682766 12.088751,15.770957 0 0 0 0.313453,0.680851 12.088751,15.770957 0 0 0 0.341382,0.643663 12.088751,15.770957 0 0 0 0.363248,0.635205 12.088751,15.770957 0 0 0 0.389582,0.596901 12.088751,15.770957 0 0 0 0.409213,0.583654 12.088751,15.770957 0 0 0 0.434429,0.544393 12.088751,15.770957 0 0 0 0.450549,0.52588 12.088751,15.770957 0 0 0 0.474488,0.485819 12.088751,15.770957 0 0 0 0.489012,0.465073 12.088751,15.770957 0 0 0 0.5096,0.421821 12.088751,15.770957 0 0 0 0.520133,0.397562 12.088751,15.770957 0 0 0 0.540085,0.353832 12.088751,15.770957 0 0 0 0.549818,0.328934 12.088751,15.770957 0 0 0 0.562429,0.280575 12.088751,15.770957 0 0 0 0.571843,0.255519 12.088751,15.770957 0 0 0 0.584294,0.207159 12.088751,15.770957 0 0 0 0.794325,0.24259 12.088751,15.770957 0 0 0 4.95e-4,1.61e-4 12.088751,15.770957 0 0 0 1.59e-4,0 12.088751,15.770957 0 0 0 1.59e-4,0 12.088751,15.770957 0 0 0 2.148525,0.256955 12.088751,15.770957 0 0 0 7.414182,-3.338339 12.088751,15.770957 26.151273 0 0 0.123371,0.375856 12.088751,15.770957 26.151273 0 0 0.233972,0.632973 12.088751,15.770957 26.151273 0 0 0.271637,0.603285 12.088751,15.770957 26.151273 0 0 0.291589,0.586049 12.088751,15.770957 26.151273 0 0 0.217693,0.368034 14.347559,18.717793 0 0 0 3.369139,-4.685354 7.8295025,10.21435 26.151273 0 1 -0.546464,-5.023096 12.088751,15.770957 0 0 0 0.713567,-5.290396 12.088751,15.770957 0 0 0 -12.088836,-15.770959 z"
         id="path4607-6-9"
         inkscape:connector-curvature="0" />
    </g>
    <g
       id="text1580"
       style="font-style:normal;font-variant:normal;font-weight:normal;font-stretch:normal;font-size:31.25980949px;line-height:125%;font-family:Neuropolitical;-inkscape-font-specification:'Neuropolitical, Normal';font-variant-ligatures:normal;font-variant-caps:normal;font-variant-numeric:normal;font-feature-settings:normal;text-align:start;letter-spacing:0px;word-spacing:0px;writing-mode:lr-tb;text-anchor:start;fill:#666666;fill-opacity:1;stroke:none;stroke-width:4.74082041px;stroke-linecap:butt;stroke-linejoin:miter;stroke-opacity:1"
       aria-label="u">
      <path
         id="path4573"
         style="fill:#666666;fill-opacity:1"
         d="m 57.240372,15.192438 v 12.722743 q 0,2.907162 -2.250706,4.282594 -2.250706,1.344171 -7.346055,1.344171 h -5.658026 q -9.690541,0 -9.690541,-5.626765 V 15.192438 h 4.845271 v 12.535184 q 0,1.56299 4.595192,1.56299 h 6.158182 q 4.470153,0 4.470153,-1.53173 V 15.192438 Z" />
    </g>
    <g
       id="text1584"
       style="font-style:normal;font-variant:normal;font-weight:normal;font-stretch:normal;font-size:31.25980949px;line-height:125%;font-family:Neuropolitical;-inkscape-font-specification:'Neuropolitical, Normal';font-variant-ligatures:normal;font-variant-caps:normal;font-variant-numeric:normal;font-feature-settings:normal;text-align:start;letter-spacing:0px;word-spacing:0px;writing-mode:lr-tb;text-anchor:start;fill:#19afd0;fill-opacity:1;stroke:none;stroke-width:4.74082041px;stroke-linecap:butt;stroke-linejoin:miter;stroke-opacity:1"
       aria-label="M">
      <path
         id="path4570"
         style=""
         d="M 91.640357,33.323128 V 18.287159 L 80.886983,32.103995 q -0.562677,0.718976 -1.312912,1.094094 -0.750236,0.343857 -1.594251,0.343857 -1.844328,0 -2.969681,-1.437951 L 64.100465,18.16212 v 15.161008 h -5.00157 V 12.597874 q 0,-1.187873 0.750236,-1.844329 0.750235,-0.687716 1.938108,-0.687716 1.750549,0 2.750863,1.187873 L 78.01108,27.821401 91.20272,11.284962 q 0.969054,-1.219133 2.657084,-1.219133 1.250392,0 2.000627,0.750236 0.781496,0.718976 0.781496,1.969368 v 20.537695 z" />
    </g>
    <g
       id="text1588"
       style="font-style:normal;font-variant:normal;font-weight:normal;font-stretch:normal;font-size:31.25980949px;line-height:125%;font-family:Neuropolitical;-inkscape-font-specification:'Neuropolitical, Normal';font-variant-ligatures:normal;font-variant-caps:normal;font-variant-numeric:normal;font-feature-settings:normal;text-align:start;letter-spacing:0px;word-spacing:0px;writing-mode:lr-tb;text-anchor:start;fill:#666666;fill-opacity:1;stroke:none;stroke-width:4.74082041px;stroke-linecap:butt;stroke-linejoin:miter;stroke-opacity:1"
       aria-label="i">
      <path
         id="path4567"
         style="fill:#666666;fill-opacity:1"
         d="m 104.50233,12.254016 q 0,1.094093 -0.90654,1.781809 -0.87527,0.656456 -2.12566,0.656456 -1.31292,0 -2.15693,-0.687716 -0.812755,-0.718975 -0.812755,-1.781809 0,-1.094093 0.844015,-1.750549 0.87527,-0.6877158 2.12567,-0.6877158 0.59393,0 1.15661,0.1875589 0.56268,0.1875589 0.96905,0.5314169 0.40638,0.312598 0.65646,0.781495 0.25008,0.437637 0.25008,0.969054 z m -5.564248,21.28793 V 15.192438 h 4.814008 v 18.349508 z" />
    </g>
    <g
       id="text1592"
       style="font-style:normal;font-variant:normal;font-weight:normal;font-stretch:normal;font-size:31.25980949px;line-height:125%;font-family:Neuropolitical;-inkscape-font-specification:'Neuropolitical, Normal';font-variant-ligatures:normal;font-variant-caps:normal;font-variant-numeric:normal;font-feature-settings:normal;text-align:start;letter-spacing:0px;word-spacing:0px;writing-mode:lr-tb;text-anchor:start;fill:#666666;fill-opacity:1;stroke:none;stroke-width:4.74082041px;stroke-linecap:butt;stroke-linejoin:miter;stroke-opacity:1"
       aria-label="c">
      <path
         id="path4564"
         style="fill:#666666;fill-opacity:1"
         d="m 115.67628,33.541946 q -4.93905,0 -7.12724,-1.375431 -2.18818,-1.406692 -2.18818,-4.313854 v -6.939678 q 0,-5.720545 8.53392,-5.720545 h 16.22385 v 4.251334 h -16.47392 q -3.43858,0 -3.43858,1.375432 v 6.845898 q 0,1.62551 4.59519,1.62551 h 15.31731 v 4.251334 z" />
    </g>
    <g
       id="text1596"
       style="font-style:normal;font-variant:normal;font-weight:normal;font-stretch:normal;font-size:31.25980949px;line-height:125%;font-family:Neuropolitical;-inkscape-font-specification:'Neuropolitical, Normal';font-variant-ligatures:normal;font-variant-caps:normal;font-variant-numeric:normal;font-feature-settings:normal;text-align:start;letter-spacing:0px;word-spacing:0px;writing-mode:lr-tb;text-anchor:start;fill:#666666;fill-opacity:1;stroke:none;stroke-width:4.74082041px;stroke-linecap:butt;stroke-linejoin:miter;stroke-opacity:1"
       aria-label="r">
      <path
         id="path4561"
         style="fill:#666666;fill-opacity:1"
         d="m 141.47984,19.443772 q -3.6574,0 -3.6574,1.594251 v 12.503923 h -4.84527 V 21.038023 q 0,-5.845585 8.90905,-5.845585 h 3.28228 v 4.251334 z" />
    </g>
    <g
       id="text1600"
       style="font-style:normal;font-variant:normal;font-weight:normal;font-stretch:normal;font-size:31.25980949px;line-height:125%;font-family:Neuropolitical;-inkscape-font-specification:'Neuropolitical, Normal';font-variant-ligatures:normal;font-variant-caps:normal;font-variant-numeric:normal;font-feature-settings:normal;text-align:start;letter-spacing:0px;word-spacing:0px;writing-mode:lr-tb;text-anchor:start;fill:#666666;fill-opacity:1;stroke:none;stroke-width:4.74082041px;stroke-linecap:butt;stroke-linejoin:miter;stroke-opacity:1"
       aria-label="o">
      <path
         id="path4558"
         style="fill:#666666;fill-opacity:1"
         d="m 171.40968,27.696362 q 0,1.406691 -0.62519,2.500785 -0.6252,1.062833 -1.81307,1.813069 -1.15662,0.750235 -2.81339,1.156613 -1.62551,0.375117 -3.62613,0.375117 h -6.28323 q -2.03188,0 -3.75117,-0.375117 -1.68803,-0.406378 -2.90716,-1.156613 -1.21914,-0.750236 -1.90685,-1.844329 -0.65646,-1.094093 -0.65646,-2.469525 v -6.470781 q 0,-1.406691 0.68772,-2.500784 0.68771,-1.125353 1.90685,-1.906849 1.25039,-0.781495 2.93842,-1.187872 1.68803,-0.437638 3.68865,-0.437638 h 6.28323 q 8.87778,0 8.87778,5.970624 z m -4.87653,-6.59582 q 0,-0.375117 -0.34386,-0.687716 -0.31259,-0.312598 -0.87527,-0.500157 -0.53142,-0.218818 -1.28165,-0.343857 -0.75024,-0.12504 -1.59425,-0.12504 h -6.15819 q -0.81275,0 -1.59425,0.156299 -0.78149,0.156299 -1.43795,0.437638 -0.62519,0.250078 -1.03157,0.625196 -0.37512,0.343858 -0.37512,0.718976 v 6.126922 q 0,0.375118 0.37512,0.718976 0.40638,0.312598 1.03157,0.562676 0.65646,0.218819 1.43795,0.375118 0.81276,0.125039 1.65677,0.125039 h 6.09567 q 0.65645,0 1.37543,-0.125039 0.71897,-0.156299 1.31291,-0.375118 0.6252,-0.250078 1.00031,-0.562676 0.40638,-0.343858 0.40638,-0.718976 z" />
    </g>
    <g
       id="text1623"
       style="font-style:normal;font-weight:normal;font-size:18.63403893px;line-height:125%;font-family:sans-serif;letter-spacing:0px;word-spacing:0px;fill:#666666;fill-opacity:1;stroke:none;stroke-width:0.46585098px;stroke-linecap:butt;stroke-linejoin:miter;stroke-opacity:1"
       aria-label="Technologies">
      <path
         id="path4576"
         style="font-style:normal;font-variant:normal;font-weight:normal;font-stretch:normal;font-size:18.63403893px;font-family:Neuropolitical;-inkscape-font-specification:'Neuropolitical, Normal';font-variant-ligatures:normal;font-variant-caps:normal;font-variant-numeric:normal;font-feature-settings:normal;text-align:start;writing-mode:lr-tb;text-anchor:start;fill:#666666;stroke-width:0.46585098px"
         d="M 11.056143,41.879889 V 53.09758 H 8.074697 V 41.879889 H 2.0000003 V 39.327025 H 17.149474 v 2.552864 z" />
      <path
         id="path4578"
         style="font-style:normal;font-variant:normal;font-weight:normal;font-stretch:normal;font-size:18.63403893px;font-family:Neuropolitical;-inkscape-font-specification:'Neuropolitical, Normal';font-variant-ligatures:normal;font-variant-caps:normal;font-variant-numeric:normal;font-feature-settings:normal;text-align:start;writing-mode:lr-tb;text-anchor:start;fill:#666666;stroke-width:0.46585098px"
         d="m 20.689884,48.998091 q 0,0.745362 1.024872,1.173945 1.024872,0.409949 3.167787,0.409949 h 1.173944 v 2.515595 h -2.087012 q -1.56526,0 -2.739204,-0.279511 -1.173945,-0.298144 -1.956574,-0.782629 -0.78263,-0.484485 -1.173945,-1.118043 -0.391314,-0.652191 -0.391314,-1.360284 v -3.857246 q 0,-0.819898 0.409948,-1.47209 0.409949,-0.670825 1.155311,-1.118042 0.745361,-0.465851 1.788868,-0.708093 1.043506,-0.242243 2.329254,-0.242243 h 4.192659 q 1.043506,0 1.93794,0.223609 0.894434,0.223608 1.527991,0.633557 0.652192,0.391315 1.006239,0.987604 0.37268,0.577655 0.37268,1.304383 v 3.689539 z m 8.90707,-3.428663 q 0,-0.931702 -2.347889,-0.931702 h -4.192658 q -2.478327,0 -2.478327,0.913068 v 1.155311 h 9.018874 z" />
      <path
         id="path4580"
         style="font-style:normal;font-variant:normal;font-weight:normal;font-stretch:normal;font-size:18.63403893px;font-family:Neuropolitical;-inkscape-font-specification:'Neuropolitical, Normal';font-variant-ligatures:normal;font-variant-caps:normal;font-variant-numeric:normal;font-feature-settings:normal;text-align:start;writing-mode:lr-tb;text-anchor:start;fill:#666666;stroke-width:0.46585098px"
         d="m 39.342527,53.09758 q -2.944178,0 -4.248561,-0.819898 -1.304382,-0.838532 -1.304382,-2.571497 v -4.136757 q 0,-3.410029 5.087092,-3.410029 h 9.671066 v 2.534229 h -9.820138 q -2.049744,0 -2.049744,0.819898 v 4.080855 q 0,0.96897 2.739203,0.96897 h 9.130679 v 2.534229 z" />
      <path
         id="path4582"
         style="font-style:normal;font-variant:normal;font-weight:normal;font-stretch:normal;font-size:18.63403893px;font-family:Neuropolitical;-inkscape-font-specification:'Neuropolitical, Normal';font-variant-ligatures:normal;font-variant-caps:normal;font-variant-numeric:normal;font-feature-settings:normal;text-align:start;writing-mode:lr-tb;text-anchor:start;fill:#666666;stroke-width:0.46585098px"
         d="m 62.094662,53.078946 v -7.323177 q 0,-1.099409 -2.291987,-1.099409 h -6.670986 v 8.422586 H 50.262047 V 39.271123 h 2.869642 v 2.888276 h 5.739284 q 1.677064,0 2.832374,0.204975 1.155311,0.204974 1.882038,0.652191 0.726728,0.428583 1.043506,1.099408 0.335413,0.670826 0.335413,1.583894 v 7.379079 z" />
      <path
         id="path4584"
         style="font-style:normal;font-variant:normal;font-weight:normal;font-stretch:normal;font-size:18.63403893px;font-family:Neuropolitical;-inkscape-font-specification:'Neuropolitical, Normal';font-variant-ligatures:normal;font-variant-caps:normal;font-variant-numeric:normal;font-feature-settings:normal;text-align:start;writing-mode:lr-tb;text-anchor:start;fill:#666666;stroke-width:0.46585098px"
         d="m 78.306275,53.09758 v -7.546786 q 0,-0.372681 -0.708093,-0.614923 -0.708094,-0.242243 -1.788868,-0.242243 h -3.87588 q -1.024872,0 -1.714332,0.260877 -0.670825,0.242242 -0.670825,0.614923 v 7.528152 h -2.888276 v -7.714492 q 0,-3.223689 5.459773,-3.223689 h 3.68954 q 5.385237,0 5.385237,3.205055 v 7.733126 z" />
      <path
         id="path4586"
         style="font-style:normal;font-variant:normal;font-weight:normal;font-stretch:normal;font-size:18.63403893px;font-family:Neuropolitical;-inkscape-font-specification:'Neuropolitical, Normal';font-variant-ligatures:normal;font-variant-caps:normal;font-variant-numeric:normal;font-feature-settings:normal;text-align:start;writing-mode:lr-tb;text-anchor:start;fill:#666666;stroke-width:0.46585098px"
         d="m 97.480664,49.613015 q 0,0.838531 -0.37268,1.490723 -0.372681,0.633557 -1.080775,1.080774 -0.689459,0.447217 -1.677063,0.689459 -0.96897,0.223609 -2.161549,0.223609 h -3.745441 q -1.211213,0 -2.236085,-0.223609 -1.006238,-0.242242 -1.732966,-0.689459 -0.726727,-0.447217 -1.136676,-1.099408 -0.391315,-0.652192 -0.391315,-1.472089 v -3.857246 q 0,-0.838532 0.409949,-1.490723 0.409949,-0.670826 1.136676,-1.136677 0.745362,-0.465851 1.7516,-0.708093 1.006238,-0.260877 2.198817,-0.260877 h 3.745441 q 5.292067,0 5.292067,3.559102 z m -2.90691,-3.931783 q 0,-0.223608 -0.204974,-0.409948 -0.18634,-0.186341 -0.521753,-0.298145 -0.316779,-0.130438 -0.763996,-0.204974 -0.447217,-0.07454 -0.950336,-0.07454 H 88.46179 q -0.484485,0 -0.950336,0.09317 -0.465851,0.09317 -0.857166,0.260876 -0.372681,0.149072 -0.614924,0.372681 -0.223608,0.204974 -0.223608,0.428583 v 3.652271 q 0,0.223609 0.223608,0.428583 0.242243,0.186341 0.614924,0.335413 0.391315,0.130438 0.857166,0.223609 0.484485,0.07454 0.987604,0.07454 h 3.633637 q 0.391315,0 0.819898,-0.07454 0.428583,-0.09317 0.78263,-0.223609 0.37268,-0.149072 0.596289,-0.335413 0.242242,-0.204974 0.242242,-0.428583 z" />
      <path
         id="path4588"
         style="font-style:normal;font-variant:normal;font-weight:normal;font-stretch:normal;font-size:18.63403893px;font-family:Neuropolitical;-inkscape-font-specification:'Neuropolitical, Normal';font-variant-ligatures:normal;font-variant-caps:normal;font-variant-numeric:normal;font-feature-settings:normal;text-align:start;writing-mode:lr-tb;text-anchor:start;fill:#666666;stroke-width:0.46585098px"
         d="M 99.381316,53.09758 V 39.252489 H 102.3814 V 53.09758 Z" />
      <path
         id="path4590"
         style="font-style:normal;font-variant:normal;font-weight:normal;font-stretch:normal;font-size:18.63403893px;font-family:Neuropolitical;-inkscape-font-specification:'Neuropolitical, Normal';font-variant-ligatures:normal;font-variant-caps:normal;font-variant-numeric:normal;font-feature-settings:normal;text-align:start;writing-mode:lr-tb;text-anchor:start;fill:#666666;stroke-width:0.46585098px"
         d="m 118.7607,49.613015 q 0,0.838531 -0.37268,1.490723 -0.37268,0.633557 -1.08077,1.080774 -0.68946,0.447217 -1.67707,0.689459 -0.96897,0.223609 -2.16155,0.223609 h -3.74544 q -1.21121,0 -2.23608,-0.223609 -1.00624,-0.242242 -1.73297,-0.689459 -0.72673,-0.447217 -1.13667,-1.099408 -0.39132,-0.652192 -0.39132,-1.472089 v -3.857246 q 0,-0.838532 0.40995,-1.490723 0.40995,-0.670826 1.13668,-1.136677 0.74536,-0.465851 1.7516,-0.708093 1.00623,-0.260877 2.19881,-0.260877 h 3.74544 q 5.29207,0 5.29207,3.559102 z m -2.90691,-3.931783 q 0,-0.223608 -0.20497,-0.409948 -0.18634,-0.186341 -0.52176,-0.298145 -0.31677,-0.130438 -0.76399,-0.204974 -0.44722,-0.07454 -0.95034,-0.07454 h -3.6709 q -0.48449,0 -0.95034,0.09317 -0.46585,0.09317 -0.85717,0.260876 -0.37268,0.149072 -0.61492,0.372681 -0.22361,0.204974 -0.22361,0.428583 v 3.652271 q 0,0.223609 0.22361,0.428583 0.24224,0.186341 0.61492,0.335413 0.39132,0.130438 0.85717,0.223609 0.48449,0.07454 0.9876,0.07454 h 3.63364 q 0.39132,0 0.8199,-0.07454 0.42858,-0.09317 0.78263,-0.223609 0.37268,-0.149072 0.59629,-0.335413 0.24224,-0.204974 0.24224,-0.428583 z" />
      <path
         id="path4592"
         style="font-style:normal;font-variant:normal;font-weight:normal;font-stretch:normal;font-size:18.63403893px;font-family:Neuropolitical;-inkscape-font-specification:'Neuropolitical, Normal';font-variant-ligatures:normal;font-variant-caps:normal;font-variant-numeric:normal;font-feature-settings:normal;text-align:start;writing-mode:lr-tb;text-anchor:start;fill:#666666;stroke-width:0.46585098px"
         d="m 135.17728,52.352218 q 0,0.819898 -0.44722,1.453455 -0.44722,0.652192 -1.26711,1.099409 -0.8199,0.447217 -1.95658,0.670825 -1.13668,0.242243 -2.51559,0.242243 h -2.12428 v -2.403791 h 3.44729 q 0.78263,0 1.22985,-0.204975 0.44722,-0.204974 0.55902,-0.503119 h -5.70202 q -2.851,0 -4.39763,-0.782629 -1.52799,-0.78263 -1.52799,-2.459694 v -3.801344 q 0,-3.503199 5.77655,-3.503199 h 2.86964 q 1.37892,0 2.49697,0.242243 1.11804,0.242242 1.90067,0.708093 0.80126,0.447217 1.22984,1.099408 0.42859,0.652192 0.42859,1.472089 z M 132.289,45.774403 q 0,-0.242243 -0.24224,-0.447217 -0.24224,-0.204975 -0.65219,-0.335413 -0.39132,-0.149072 -0.89444,-0.223608 -0.50312,-0.07454 -1.02487,-0.07454 h -3.91315 q -2.21745,0 -2.21745,0.931702 v 3.801344 q 0,0.987604 2.64604,0.987604 h 6.2983 z" />
      <path
         id="path4594"
         style="font-style:normal;font-variant:normal;font-weight:normal;font-stretch:normal;font-size:18.63403893px;font-family:Neuropolitical;-inkscape-font-specification:'Neuropolitical, Normal';font-variant-ligatures:normal;font-variant-caps:normal;font-variant-numeric:normal;font-feature-settings:normal;text-align:start;writing-mode:lr-tb;text-anchor:start;fill:#666666;stroke-width:0.46585098px"
         d="m 140.22709,40.407799 q 0,0.652192 -0.54039,1.062141 -0.52175,0.391314 -1.26712,0.391314 -0.78263,0 -1.28574,-0.409948 -0.48449,-0.428583 -0.48449,-1.062141 0,-0.652191 0.50312,-1.043506 0.52175,-0.409949 1.26711,-0.409949 0.35405,0 0.68946,0.111805 0.33542,0.111804 0.57766,0.316778 0.24224,0.186341 0.39131,0.465851 0.14908,0.260877 0.14908,0.577655 z M 136.91023,53.09758 V 42.159399 h 2.86964 V 53.09758 Z" />
      <path
         id="path4596"
         style="font-style:normal;font-variant:normal;font-weight:normal;font-stretch:normal;font-size:18.63403893px;font-family:Neuropolitical;-inkscape-font-specification:'Neuropolitical, Normal';font-variant-ligatures:normal;font-variant-caps:normal;font-variant-numeric:normal;font-feature-settings:normal;text-align:start;writing-mode:lr-tb;text-anchor:start;fill:#666666;stroke-width:0.46585098px"
         d="m 144.47562,48.998091 q 0,0.745362 1.02487,1.173945 1.02488,0.409949 3.16779,0.409949 h 1.17394 v 2.515595 h -2.08701 q -1.56526,0 -2.7392,-0.279511 -1.17395,-0.298144 -1.95658,-0.782629 -0.78263,-0.484485 -1.17394,-1.118043 -0.39132,-0.652191 -0.39132,-1.360284 v -3.857246 q 0,-0.819898 0.40995,-1.47209 0.40995,-0.670825 1.15531,-1.118042 0.74537,-0.465851 1.78887,-0.708093 1.04351,-0.242243 2.32926,-0.242243 h 4.19266 q 1.0435,0 1.93794,0.223609 0.89443,0.223608 1.52799,0.633557 0.65219,0.391315 1.00623,0.987604 0.37269,0.577655 0.37269,1.304383 v 3.689539 z m 8.90707,-3.428663 q 0,-0.931702 -2.34789,-0.931702 h -4.19266 q -2.47832,0 -2.47832,0.913068 v 1.155311 h 9.01887 z" />
      <path
         id="path4598"
         style="font-style:normal;font-variant:normal;font-weight:normal;font-stretch:normal;font-size:18.63403893px;font-family:Neuropolitical;-inkscape-font-specification:'Neuropolitical, Normal';font-variant-ligatures:normal;font-variant-caps:normal;font-variant-numeric:normal;font-feature-settings:normal;text-align:start;writing-mode:lr-tb;text-anchor:start;fill:#666666;stroke-width:0.46585098px"
         d="m 165.55069,44.693628 h -2.77648 q -2.31062,0 -2.31062,0.484485 v 0.540388 q 0,0.167706 0.11181,0.298144 0.1118,0.111804 0.39131,0.186341 0.27951,0.0559 0.74536,0.09317 0.48449,0.01863 1.21122,0.01863 h 3.7268 q 4.47217,0 4.47217,3.09325 v 0.465851 q 0,3.223689 -4.75168,3.223689 h -8.75799 v -2.534229 h 8.75799 q 1.77024,0 1.77024,-0.68946 v -0.391315 q 0,-0.614923 -1.5839,-0.614923 h -3.63363 q -5.34797,0 -5.34797,-3.111884 v -0.670826 q 0,-1.509357 1.17394,-2.21745 1.17395,-0.708094 3.91315,-0.708094 h 2.88828 z" />
    </g>
  </g>
</svg>
