<?xml version="1.0" encoding="UTF-8" standalone="no"?>
<svg
   xmlns:dc="http://purl.org/dc/elements/1.1/"
   xmlns:cc="http://creativecommons.org/ns#"
   xmlns:rdf="http://www.w3.org/1999/02/22-rdf-syntax-ns#"
   xmlns:svg="http://www.w3.org/2000/svg"
   xmlns="http://www.w3.org/2000/svg"
   xmlns:xlink="http://www.w3.org/1999/xlink"
   id="svg1648"
   version="1.1"
   viewBox="0 0 173.40968 57.81815"
   height="57.81815mm"
   width="173.40968mm">
  <defs
     id="defs1642">
    <linearGradient
       gradientTransform="matrix(0.30884337,0,0,0.30884337,12.721242,9.5677993)"
       gradientUnits="userSpaceOnUse"
       y2="141.91446"
       x2="58.147217"
       y1="6.8865242"
       x1="58.147217"
       id="linearGradient1469"
       xlink:href="#linearGradient1467" />
    <linearGradient
       id="linearGradient1467">
      <stop
         id="stop1463"
         offset="0"
         style="stop-color:#000000;stop-opacity:1" />
      <stop
         id="stop1465"
         offset="1"
         style="stop-color:#0f0f0f;stop-opacity:0" />
    </linearGradient>
    <linearGradient
       gradientTransform="matrix(0.08171481,0,0,0.08171481,-17.324926,8.2966156)"
       gradientUnits="userSpaceOnUse"
       y2="43.475777"
       x2="626.39453"
       y1="426.6875"
       x1="626.39453"
       id="linearGradient984"
       xlink:href="#linearGradient982" />
    <linearGradient
       id="linearGradient982">
      <stop
         id="stop978"
         offset="0"
         style="stop-color:#16a1c0;stop-opacity:1" />
      <stop
         id="stop980"
         offset="1"
         style="stop-color:#81ddf1;stop-opacity:1" />
    </linearGradient>
  </defs>
  <metadata
     id="metadata1645">
    <rdf:RDF>
      <cc:Work
         rdf:about="">
        <dc:format>image/svg+xml</dc:format>
        <dc:type
           rdf:resource="http://purl.org/dc/dcmitype/StillImage" />
        <dc:title></dc:title>
      </cc:Work>
    </rdf:RDF>
  </metadata>
  <g
     transform="translate(-19.128493,-28.454016)"
     id="layer1">
    <g
       transform="translate(3.6155037,18.832633)"
       id="g1619">
      <path
         style="opacity:0.60100002;fill:url(#linearGradient1469);fill-opacity:1;stroke-width:0.08317861"
         d="M 29.601745,11.62141 A 12.088751,15.770957 0 0 0 17.512991,27.392367 12.088751,15.770957 0 0 0 29.601745,43.163323 h 4.259249 a 12.088751,15.770957 0 0 1 -2.148468,-0.256955 12.088751,15.770957 0 0 0 -8.1e-5,0 12.088751,15.770957 0 0 0 -1.61e-4,0 12.088751,15.770957 0 0 1 -6.17e-4,-1.63e-4 12.088751,15.770957 0 0 1 -0.79433,-0.242594 12.088751,15.770957 0 0 1 -0.584149,-0.207159 12.088751,15.770957 0 0 1 -0.571925,-0.255519 12.088751,15.770957 0 0 1 -0.273908,-0.136617 l 0.0016,0.01501 a 12.088751,15.770957 0 0 1 -0.165887,-0.09703 12.088751,15.770957 0 0 1 -0.124173,-0.06193 12.088751,15.770957 0 0 1 -0.549899,-0.32893 12.088751,15.770957 0 0 1 -0.04673,-0.03064 12.088751,15.770957 0 0 1 -0.377772,-0.247535 12.088751,15.770957 0 0 1 -0.115486,-0.07566 12.088751,15.770957 0 0 1 -0.520172,-0.397555 12.088751,15.770957 0 0 1 -0.03927,-0.03256 12.088751,15.770957 0 0 1 -0.366644,-0.303398 12.088751,15.770957 0 0 1 -0.10374,-0.08587 12.088751,15.770957 0 0 1 -0.488977,-0.46507 12.088751,15.770957 0 0 1 -0.03008,-0.03079 12.088751,15.770957 0 0 1 -0.352449,-0.360856 12.088751,15.770957 0 0 1 -0.092,-0.09416 12.088751,15.770957 0 0 1 -0.450441,-0.525877 12.088751,15.770957 0 0 1 -0.02177,-0.02731 12.088751,15.770957 0 0 1 -0.333246,-0.41767 12.088751,15.770957 0 0 1 -0.07939,-0.09943 12.088751,15.770957 0 0 1 -0.409215,-0.583655 12.088751,15.770957 0 0 1 -0.01491,-0.02283 12.088751,15.770957 0 0 1 -0.307552,-0.471137 12.088751,15.770957 0 0 1 -0.06716,-0.102942 12.088751,15.770957 0 0 1 -0.363215,-0.635207 12.088751,15.770957 0 0 1 -0.0077,-0.01451 12.088751,15.770957 0 0 1 -0.279661,-0.527156 12.088751,15.770957 0 0 1 -0.05407,-0.101987 12.088751,15.770957 0 0 1 -0.313426,-0.680848 12.088751,15.770957 0 0 1 -8.78e-4,-0.0025 12.088751,15.770957 0 0 1 -0.246875,-0.582055 12.088751,15.770957 0 0 1 -0.04171,-0.09832 12.088751,15.770957 0 0 1 -0.243693,-0.673665 12.088751,15.770957 0 0 1 -0.220941,-0.666966 12.088751,15.770957 0 0 1 -0.03145,-0.09544 12.088751,15.770957 0 0 1 -0.172004,-0.632647 12.088751,15.770957 0 0 1 -0.190846,-0.775815 12.088751,15.770957 0 0 1 -0.02091,-0.08634 12.088751,15.770957 0 0 1 -0.107898,-0.5728 12.088751,15.770957 0 0 1 -0.147173,-0.885939 12.088751,15.770957 0 0 1 -0.01235,-0.07741 12.088751,15.770957 0 0 1 -0.05444,-0.502099 12.088751,15.770957 0 0 1 -0.116341,-1.335686 7.8295025,10.21435 0 0 1 -3.09e-4,-0.0051 7.8295025,10.21435 0 0 1 -0.03352,-0.87173 12.088751,15.770957 0 0 1 0.03462,-0.883545 12.088751,15.770957 0 0 1 0.0056,-0.145391 7.8295025,10.21435 0 0 1 0.03891,-0.333245 7.8295025,10.21435 0 0 1 0.06202,-0.532585 7.8295025,10.21435 0 0 1 0,-3.09e-4 7.8295025,10.21435 0 0 1 0.08099,-0.470019 7.8295025,10.21435 0 0 1 0.102273,-0.520933 7.8295025,10.21435 0 0 1 0.116709,-0.458208 7.8295025,10.21435 0 0 1 1.23e-4,-6.19e-4 7.8295025,10.21435 0 0 1 0.02925,-0.104218 7.8295025,10.21435 0 0 1 0.112306,-0.399956 7.8295025,10.21435 0 0 1 0.152184,-0.443527 7.8295025,10.21435 0 0 1 0.178,-0.479593 7.8295025,10.21435 0 0 1 0.186563,-0.424375 7.8295025,10.21435 0 0 1 0.213231,-0.452784 7.8295025,10.21435 0 0 1 0.217148,-0.396282 7.8295025,10.21435 0 0 1 6.17e-4,-0.0012 7.8295025,10.21435 0 0 1 0.06948,-0.119062 7.8295025,10.21435 0 0 1 0.177755,-0.304196 7.8295025,10.21435 0 0 1 0.246143,-0.365643 7.8295025,10.21435 0 0 1 8.78e-4,-0.0016 7.8295025,10.21435 0 0 1 0.277823,-0.388302 7.8295025,10.21435 0 0 1 2.47e-4,-3.09e-4 7.8295025,10.21435 0 0 1 0.275007,-0.334203 7.8295025,10.21435 0 0 1 0.01603,-0.01835 7.8295025,10.21435 0 0 1 0.288837,-0.330369 7.8295025,10.21435 0 0 1 0.301801,-0.299248 7.8295025,10.21435 0 0 1 0.327372,-0.304834 7.8295025,10.21435 0 0 1 0.324436,-0.259508 7.8295025,10.21435 0 0 1 0.0012,-8.79e-4 7.8295025,10.21435 0 0 1 0.346334,-0.258709 7.8295025,10.21435 0 0 1 6.18e-4,-3.08e-4 7.8295025,10.21435 0 0 1 0.34499,-0.217377 7.8295025,10.21435 0 0 1 0.365294,-0.212743 7.8295025,10.21435 0 0 1 6.18e-4,-3.09e-4 7.8295025,10.21435 0 0 1 0.356485,-0.169657 7.8295025,10.21435 0 0 1 2.44e-4,-1.63e-4 7.8295025,10.21435 0 0 1 0.380585,-0.164546 7.8295025,10.21435 0 0 1 3.09e-4,-1.64e-4 7.8295025,10.21435 0 0 1 0.373126,-0.124168 7.8295025,10.21435 0 0 1 0.384992,-0.112356 7.8295025,10.21435 0 0 1 6.17e-4,-1.65e-4 7.8295025,10.21435 0 0 1 0.385483,-0.07597 7.8295025,10.21435 0 0 1 8.78e-4,-1.63e-4 7.8295025,10.21435 0 0 1 0.252502,-0.03958 7.8295025,10.21435 0 0 1 0.134813,-0.02122 7.8295025,10.21435 0 0 1 0.664041,-0.04341 7.8295025,10.21435 0 0 1 0.68141,0.04756 7.8295025,10.21435 0 0 1 3.09e-4,0 7.8295025,10.21435 0 0 1 0.387561,0.06511 7.8295025,10.21435 0 0 1 0.0068,0.0012 7.8295025,10.21435 0 0 1 0.378994,0.07661 7.8295025,10.21435 0 0 1 0.664897,0.201096 7.8295025,10.21435 0 0 1 1.64e-4,0 7.8295025,10.21435 0 0 1 5.70942,9.822694 7.8295025,10.21435 0 0 1 -5.690213,9.822692 7.8295025,10.21435 0 0 0 0.664893,0.201095 7.8295025,10.21435 0 0 0 0.385727,0.07789 7.8295025,10.21435 0 0 0 0.387926,0.06511 7.8295025,10.21435 0 0 0 3.09e-4,0 7.8295025,10.21435 0 0 0 0.681046,0.04756 7.8295025,10.21435 0 0 0 0.664038,-0.04341 7.8295025,10.21435 0 0 0 0.386459,-0.06065 7.8295025,10.21435 0 0 0 8.78e-4,-1.61e-4 7.8295025,10.21435 0 0 0 0.387072,-0.07629 7.8295025,10.21435 0 0 0 6.17e-4,-1.61e-4 7.8295025,10.21435 0 0 0 0.38438,-0.112202 7.8295025,10.21435 0 0 0 0.02371,-0.008 7.8295025,10.21435 0 0 0 0.349758,-0.116344 7.8295025,10.21435 0 0 0 3.1e-4,-1.64e-4 7.8295025,10.21435 0 0 0 0.379975,-0.164233 7.8295025,10.21435 0 0 0 2.44e-4,-1.64e-4 7.8295025,10.21435 0 0 0 0.357345,-0.170133 7.8295025,10.21435 0 0 0 6.17e-4,-3.08e-4 7.8295025,10.21435 0 0 0 0.364683,-0.212423 7.8295025,10.21435 0 0 0 0.05701,-0.03591 7.8295025,10.21435 0 0 0 0.288468,-0.181785 7.8295025,10.21435 0 0 0 6.19e-4,-3.1e-4 7.8295025,10.21435 0 0 0 0.344742,-0.25759 7.8295025,10.21435 0 0 0 0.0012,-8.79e-4 7.8295025,10.21435 0 0 0 0.325536,-0.260467 7.8295025,10.21435 0 0 0 0.327372,-0.304834 7.8295025,10.21435 0 0 0 0.301805,-0.299248 7.8295025,10.21435 0 0 0 0.304861,-0.348724 7.8295025,10.21435 0 0 0 0.0138,-0.01692 7.8295025,10.21435 0 0 0 0.261437,-0.317602 7.8295025,10.21435 0 0 0 1.63e-4,-1.64e-4 7.8295025,10.21435 0 0 0 0.2766,-0.386549 7.8295025,10.21435 0 0 0 0.0012,-0.0016 7.8295025,10.21435 0 0 0 0.247118,-0.367237 7.8295025,10.21435 0 0 0 0.24663,-0.422139 7.8295025,10.21435 0 0 0 6.17e-4,-0.0012 7.8295025,10.21435 0 0 0 0.217759,-0.397401 7.8295025,10.21435 0 0 0 0.213229,-0.452786 7.8295025,10.21435 0 0 0 0.186563,-0.424373 7.8295025,10.21435 0 0 0 0.176776,-0.475924 7.8295025,10.21435 0 0 0 6.18e-4,-0.0021 7.8295025,10.21435 0 0 0 0.153167,-0.446717 7.8295025,10.21435 0 0 0 0.140073,-0.499227 7.8295025,10.21435 0 0 0 1.61e-4,-3.09e-4 7.8295025,10.21435 0 0 0 0.117811,-0.462199 7.8295025,10.21435 0 0 0 8.3e-5,-8.79e-4 7.8295025,10.21435 0 0 0 0.10203,-0.519653 7.8295025,10.21435 0 0 0 0.06631,-0.384956 7.8295025,10.21435 0 0 0 0.01466,-0.08538 7.8295025,10.21435 0 0 0 0,-1.63e-4 7.8295025,10.21435 0 0 0 0.06202,-0.532424 7.8295025,10.21435 0 0 0 2.44e-4,-0.0021 7.8295025,10.21435 0 0 0 0.04429,-0.475289 12.088751,15.770957 0 0 0 0,-0.0012 7.8295025,10.21435 0 0 0 0.03463,-0.883539 12.088751,15.770957 0 0 0 -0.03352,-0.871732 12.088751,15.770957 0 0 0 -3.08e-4,-0.0051 12.088751,15.770957 0 0 0 -0.09591,-1.180871 12.088751,15.770957 0 0 0 -0.103623,-0.837099 12.088751,15.770957 0 0 0 -2.45e-4,-0.0016 12.088751,15.770957 0 0 0 -0.109858,-0.687075 12.088751,15.770957 0 0 0 -0.177996,-0.871892 12.088751,15.770957 0 0 0 -0.145092,-0.600571 12.088751,15.770957 0 0 0 -0.0044,-0.01835 12.088751,15.770957 0 0 0 -0.258252,-0.894394 12.088751,15.770957 0 0 0 -6.18e-4,-0.0016 12.088751,15.770957 0 0 0 -0.179712,-0.545989 12.088751,15.770957 0 0 0 0,-1.64e-4 12.088751,15.770957 0 0 0 -0.342249,-0.900559 12.088751,15.770957 0 0 0 -0.204424,-0.481835 12.088751,15.770957 0 0 0 -0.428542,-0.891038 12.088751,15.770957 0 0 0 -0.218615,-0.412087 12.088751,15.770957 0 0 0 -0.516136,-0.867103 12.088751,15.770957 0 0 0 -0.228522,-0.350001 12.088751,15.770957 0 0 0 -0.599079,-0.822094 12.088751,15.770957 0 0 0 -8.78e-4,-0.0013 12.088751,15.770957 0 0 0 -0.233786,-0.292865 12.088751,15.770957 0 0 0 -0.682877,-0.766396 12.088751,15.770957 0 0 0 -0.0975,-0.09991 12.088751,15.770957 0 0 0 -0.132735,-0.135979 12.088751,15.770957 0 0 0 -8.78e-4,-7.79e-4 12.088751,15.770957 0 0 0 -0.760441,-0.693938 12.088751,15.770957 0 0 0 -6.17e-4,-6.48e-4 12.088751,15.770957 0 0 0 -0.225342,-0.186412 12.088751,15.770957 0 0 0 -0.831514,-0.607595 12.088751,15.770957 0 0 0 -1.64e-4,0 12.088751,15.770957 0 0 0 -0.218668,-0.14315 12.088751,15.770957 0 0 0 -0.892314,-0.506727 12.088751,15.770957 0 0 0 -6.17e-4,-3.08e-4 12.088751,15.770957 0 0 0 -0.114016,-0.05682 12.088751,15.770957 0 0 0 -0.841429,-0.372823 12.088751,15.770957 0 0 0 -0.27403,-0.09704 12.088751,15.770957 0 0 0 -0.98542,-0.31026 12.088751,15.770957 0 0 0 -1.6e-4,0 12.088751,15.770957 0 0 0 -1.070847,-0.183323 12.088751,15.770957 0 0 0 -1.078021,-0.07326 z"
         id="path4663-5-0" />
      <path
         style="opacity:1;fill:url(#linearGradient984);fill-opacity:1;stroke-width:0.08317861"
         d="m 29.601717,11.621387 a 12.088751,15.770957 0 0 1 2.148525,0.256954 12.088751,15.770957 0 0 0 1.59e-4,0 12.088751,15.770957 0 0 1 2.100804,0.780121 l 1.6e-4,-0.0078 a 12.088751,15.770957 0 0 1 0.113795,0.06464 12.088751,15.770957 0 0 1 0.892798,0.507047 12.088751,15.770957 0 0 1 0.218651,0.14316 12.088751,15.770957 0 0 1 0.831671,0.607593 12.088751,15.770957 0 0 1 0.225354,0.186412 12.088751,15.770957 0 0 1 0.761926,0.695375 12.088751,15.770957 0 0 1 0.230143,0.235887 12.088751,15.770957 0 0 1 0.682925,0.766396 12.088751,15.770957 0 0 1 0.233813,0.292864 12.088751,15.770957 0 0 1 0.600094,0.823372 12.088751,15.770957 0 0 1 0.228545,0.350002 12.088751,15.770957 0 0 1 0.516144,0.867102 12.088751,15.770957 0 0 1 0.218491,0.412085 12.088751,15.770957 0 0 1 0.428524,0.891042 12.088751,15.770957 0 0 1 0.204447,0.481831 12.088751,15.770957 0 0 1 0.342341,0.900779 12.088751,15.770957 0 0 1 0.179708,0.545988 12.088751,15.770957 0 0 1 0.25871,0.89599 12.088751,15.770957 0 0 1 0.149545,0.618927 12.088751,15.770957 0 0 1 0.177953,0.87189 12.088751,15.770957 0 0 1 0.109964,0.687075 12.088751,15.770957 0 0 1 0.10374,0.838534 12.088751,15.770957 0 0 1 0.09592,1.180874 12.088751,15.770957 0 0 1 3.09e-4,0.0051 12.088751,15.770957 0 0 1 0.03351,0.871731 7.8295025,10.21435 0 0 1 -0.03464,0.883542 12.088751,15.770957 0 0 1 -0.0055,0.145396 7.8295025,10.21435 0 0 1 -0.03894,0.333242 7.8295025,10.21435 0 0 1 -0.06193,0.532583 7.8295025,10.21435 0 0 1 -0.08108,0.470339 7.8295025,10.21435 0 0 1 -0.102143,0.520612 7.8295025,10.21435 0 0 1 -0.117785,0.4622 7.8295025,10.21435 0 0 1 -0.140128,0.499544 7.8295025,10.21435 0 0 1 -0.153215,0.446719 7.8295025,10.21435 0 0 1 -0.177475,0.478 7.8295025,10.21435 0 0 1 -0.18657,0.424375 7.8295025,10.21435 0 0 1 -0.213226,0.452783 7.8295025,10.21435 0 0 1 -0.217852,0.397402 7.8295025,10.21435 0 0 1 -0.247219,0.423257 7.8295025,10.21435 0 0 1 -0.24706,0.367238 7.8295025,10.21435 0 0 1 -0.277862,0.388304 7.8295025,10.21435 0 0 1 -0.275308,0.334521 7.8295025,10.21435 0 0 1 -0.304835,0.348724 7.8295025,10.21435 0 0 1 -0.301803,0.299249 7.8295025,10.21435 0 0 1 -0.327338,0.304834 7.8295025,10.21435 0 0 1 -0.325582,0.260465 7.8295025,10.21435 0 0 1 -0.346331,0.258712 7.8295025,10.21435 0 0 1 -0.345373,0.217692 7.8295025,10.21435 0 0 1 -0.365322,0.212746 7.8295025,10.21435 0 0 1 -0.357343,0.170133 7.8295025,10.21435 0 0 1 -0.380644,0.164546 7.8295025,10.21435 0 0 1 -0.373461,0.124329 7.8295025,10.21435 0 0 1 -0.384954,0.112358 7.8295025,10.21435 0 0 1 -0.387188,0.07629 7.8295025,10.21435 0 0 1 -0.387187,0.06081 7.8295025,10.21435 0 0 1 -0.664094,0.04341 7.8295025,10.21435 0 0 1 -0.681487,-0.04757 7.8295025,10.21435 0 0 1 -0.387827,-0.06511 7.8295025,10.21435 0 0 1 -0.385752,-0.07788 7.8295025,10.21435 0 0 1 -0.66489,-0.201096 7.8295025,10.21435 0 0 1 -1.6e-4,0 7.8295025,10.21435 0 0 1 -5.709502,-9.822693 7.8295025,10.21435 0 0 1 5.690351,-9.822694 7.8295025,10.21435 0 0 0 -0.665051,-0.201095 7.8295025,10.21435 0 0 0 -0.38559,-0.07788 7.8295025,10.21435 0 0 0 -0.387987,-0.06511 7.8295025,10.21435 0 0 0 -0.681489,-0.04756 7.8295025,10.21435 0 0 0 -0.663933,0.04341 7.8295025,10.21435 0 0 0 -0.387346,0.06081 7.8295025,10.21435 0 0 0 -0.387028,0.07629 7.8295025,10.21435 0 0 0 -0.384954,0.112358 7.8295025,10.21435 0 0 0 -0.373621,0.124327 7.8295025,10.21435 0 0 0 -0.380485,0.164548 7.8295025,10.21435 0 0 0 -0.357343,0.170132 7.8295025,10.21435 0 0 0 -0.365322,0.212746 7.8295025,10.21435 0 0 0 -0.345533,0.217693 7.8295025,10.21435 0 0 0 -0.34633,0.258711 7.8295025,10.21435 0 0 0 -0.325582,0.260466 7.8295025,10.21435 0 0 0 -0.327339,0.304834 7.8295025,10.21435 0 0 0 -0.301801,0.299248 7.8295025,10.21435 0 0 0 -0.304835,0.348725 7.8295025,10.21435 0 0 0 -0.275309,0.33452 7.8295025,10.21435 0 0 0 -0.277703,0.388305 7.8295025,10.21435 0 0 0 -0.247218,0.367238 7.8295025,10.21435 0 0 0 -0.24722,0.423257 7.8295025,10.21435 0 0 0 -0.217693,0.397402 7.8295025,10.21435 0 0 0 -0.213225,0.452783 7.8295025,10.21435 0 0 0 -0.186572,0.424374 7.8295025,10.21435 0 0 0 -0.178112,0.479596 7.8295025,10.21435 0 0 0 -0.152098,0.443526 7.8295025,10.21435 0 0 0 -0.141565,0.504174 7.8295025,10.21435 0 0 0 -0.116827,0.458848 7.8295025,10.21435 0 0 0 -0.102303,0.520932 7.8295025,10.21435 0 0 0 -0.08092,0.470339 7.8295025,10.21435 0 0 0 -0.06208,0.532583 7.8295025,10.21435 0 0 0 -0.04453,0.478637 12.088751,15.770957 0 0 0 -0.03464,0.883542 7.8295025,10.21435 0 0 0 0.03351,0.87173 7.8295025,10.21435 0 0 0 3.09e-4,0.0051 12.088751,15.770957 0 0 0 0.08538,1.050961 12.088751,15.770957 0 0 0 0.08538,0.786824 12.088751,15.770957 0 0 0 0.122572,0.766396 12.088751,15.770957 0 0 0 0.144916,0.769747 12.088751,15.770957 0 0 0 0.179869,0.74485 12.088751,15.770957 0 0 0 0.203808,0.749957 12.088751,15.770957 0 0 0 0.235888,0.716441 12.088751,15.770957 0 0 0 0.260305,0.719632 12.088751,15.770957 0 0 0 0.289514,0.682766 12.088751,15.770957 0 0 0 0.313453,0.680851 12.088751,15.770957 0 0 0 0.341382,0.643663 12.088751,15.770957 0 0 0 0.363248,0.635205 12.088751,15.770957 0 0 0 0.389582,0.596901 12.088751,15.770957 0 0 0 0.409213,0.583654 12.088751,15.770957 0 0 0 0.434429,0.544393 12.088751,15.770957 0 0 0 0.450549,0.52588 12.088751,15.770957 0 0 0 0.474488,0.485819 12.088751,15.770957 0 0 0 0.489012,0.465073 12.088751,15.770957 0 0 0 0.5096,0.421821 12.088751,15.770957 0 0 0 0.520133,0.397562 12.088751,15.770957 0 0 0 0.540085,0.353832 12.088751,15.770957 0 0 0 0.549818,0.328934 12.088751,15.770957 0 0 0 0.562429,0.280575 12.088751,15.770957 0 0 0 0.571843,0.255519 12.088751,15.770957 0 0 0 0.584294,0.207159 12.088751,15.770957 0 0 0 0.794325,0.24259 12.088751,15.770957 0 0 0 4.95e-4,1.61e-4 12.088751,15.770957 0 0 0 1.59e-4,0 12.088751,15.770957 0 0 0 1.59e-4,0 12.088751,15.770957 0 0 0 2.148525,0.256955 12.088751,15.770957 0 0 0 7.414182,-3.338339 12.088751,15.770957 26.151273 0 0 0.123371,0.375856 12.088751,15.770957 26.151273 0 0 0.233972,0.632973 12.088751,15.770957 26.151273 0 0 0.271637,0.603285 12.088751,15.770957 26.151273 0 0 0.291589,0.586049 12.088751,15.770957 26.151273 0 0 0.217693,0.368034 14.347559,18.717793 0 0 0 3.369139,-4.685354 7.8295025,10.21435 26.151273 0 1 -0.546464,-5.023096 12.088751,15.770957 0 0 0 0.713567,-5.290396 12.088751,15.770957 0 0 0 -12.088836,-15.770959 z"
         id="path4607-6-9" />
    </g>
    <text
       xml:space="preserve"
       style="font-style:normal;font-variant:normal;font-weight:normal;font-stretch:normal;font-size:31.25980949px;line-height:125%;font-family:Neuropolitical;-inkscape-font-specification:'Neuropolitical, Normal';font-variant-ligatures:normal;font-variant-caps:normal;font-variant-numeric:normal;font-feature-settings:normal;text-align:start;letter-spacing:0px;word-spacing:0px;writing-mode:lr-tb;text-anchor:start;fill:#666666;fill-opacity:1;stroke:none;stroke-width:4.74082041px;stroke-linecap:butt;stroke-linejoin:miter;stroke-opacity:1;"
       x="50.079365"
       y="61.995964"
       id="text1580"><tspan
         style="fill:#666666;fill-opacity:1;"
         id="tspan1578">u</tspan></text>
    <text
       xml:space="preserve"
       style="font-style:normal;font-variant:normal;font-weight:normal;font-stretch:normal;font-size:31.25980949px;line-height:125%;font-family:Neuropolitical;-inkscape-font-specification:'Neuropolitical, Normal';font-variant-ligatures:normal;font-variant-caps:normal;font-variant-numeric:normal;font-feature-settings:normal;text-align:start;letter-spacing:0px;word-spacing:0px;writing-mode:lr-tb;text-anchor:start;fill:#19afd0;fill-opacity:1;stroke:none;stroke-width:4.74082041px;stroke-linecap:butt;stroke-linejoin:miter;stroke-opacity:1"
       x="76.758179"
       y="61.777145"
       id="text1584"><tspan
         id="tspan1582">M</tspan></text>
    <text
       xml:space="preserve"
       style="font-style:normal;font-variant:normal;font-weight:normal;font-stretch:normal;font-size:31.25980949px;line-height:125%;font-family:Neuropolitical;-inkscape-font-specification:'Neuropolitical, Normal';font-variant-ligatures:normal;font-variant-caps:normal;font-variant-numeric:normal;font-feature-settings:normal;text-align:start;letter-spacing:0px;word-spacing:0px;writing-mode:lr-tb;text-anchor:start;fill:#666666;fill-opacity:1;stroke:none;stroke-width:4.74082041px;stroke-linecap:butt;stroke-linejoin:miter;stroke-opacity:1;"
       x="116.28477"
       y="61.995964"
       id="text1588"><tspan
         style="fill:#666666;fill-opacity:1;"
         id="tspan1586">i</tspan></text>
    <text
       xml:space="preserve"
       style="font-style:normal;font-variant:normal;font-weight:normal;font-stretch:normal;font-size:31.25980949px;line-height:125%;font-family:Neuropolitical;-inkscape-font-specification:'Neuropolitical, Normal';font-variant-ligatures:normal;font-variant-caps:normal;font-variant-numeric:normal;font-feature-settings:normal;text-align:start;letter-spacing:0px;word-spacing:0px;writing-mode:lr-tb;text-anchor:start;fill:#666666;fill-opacity:1;stroke:none;stroke-width:4.74082041px;stroke-linecap:butt;stroke-linejoin:miter;stroke-opacity:1;"
       x="124.27022"
       y="61.995964"
       id="text1592"><tspan
         style="fill:#666666;fill-opacity:1;"
         id="tspan1590">c</tspan></text>
    <text
       xml:space="preserve"
       style="font-style:normal;font-variant:normal;font-weight:normal;font-stretch:normal;font-size:31.25980949px;line-height:125%;font-family:Neuropolitical;-inkscape-font-specification:'Neuropolitical, Normal';font-variant-ligatures:normal;font-variant-caps:normal;font-variant-numeric:normal;font-feature-settings:normal;text-align:start;letter-spacing:0px;word-spacing:0px;writing-mode:lr-tb;text-anchor:start;fill:#666666;fill-opacity:1;stroke:none;stroke-width:4.74082041px;stroke-linecap:butt;stroke-linejoin:miter;stroke-opacity:1;"
       x="150.79276"
       y="61.995964"
       id="text1596"><tspan
         style="fill:#666666;fill-opacity:1;"
         id="tspan1594">r</tspan></text>
    <text
       xml:space="preserve"
       style="font-style:normal;font-variant:normal;font-weight:normal;font-stretch:normal;font-size:31.25980949px;line-height:125%;font-family:Neuropolitical;-inkscape-font-specification:'Neuropolitical, Normal';font-variant-ligatures:normal;font-variant-caps:normal;font-variant-numeric:normal;font-feature-settings:normal;text-align:start;letter-spacing:0px;word-spacing:0px;writing-mode:lr-tb;text-anchor:start;fill:#666666;fill-opacity:1;stroke:none;stroke-width:4.74082041px;stroke-linecap:butt;stroke-linejoin:miter;stroke-opacity:1;"
       x="164.62379"
       y="61.995964"
       id="text1600"><tspan
         style="fill:#666666;fill-opacity:1;"
         id="tspan1598">o</tspan></text>
    <text
       id="text1623"
       y="81.551598"
       x="20.588106"
       style="font-style:normal;font-weight:normal;font-size:18.63403893px;line-height:125%;font-family:sans-serif;letter-spacing:0px;word-spacing:0px;fill:#666666;fill-opacity:1;stroke:none;stroke-width:0.46585098px;stroke-linecap:butt;stroke-linejoin:miter;stroke-opacity:1"
       xml:space="preserve"><tspan
         style="font-style:normal;font-variant:normal;font-weight:normal;font-stretch:normal;font-size:18.63403893px;font-family:Neuropolitical;-inkscape-font-specification:'Neuropolitical, Normal';font-variant-ligatures:normal;font-variant-caps:normal;font-variant-numeric:normal;font-feature-settings:normal;text-align:start;writing-mode:lr-tb;text-anchor:start;fill:#666666;stroke-width:0.46585098px"
         y="81.551598"
         x="20.588106"
         id="tspan1621">Technologies</tspan></text>
  </g>
</svg>
